<svg width="267" height="73" viewBox="0 0 267 73" fill="none" xmlns="http://www.w3.org/2000/svg">
<g clip-path="url(#clip0_6187_30719)">
<path d="M254.951 24.6874C251.919 24.6874 250.15 26.1071 249.697 29.5037H259.8C259.597 26.3099 258.034 24.6874 254.951 24.6874ZM255.05 44.3071C247.828 44.3071 242.777 40.1499 242.777 32.1399C242.777 23.8256 247.372 18.959 255.153 18.959C262.53 18.959 266.116 23.6736 266.116 30.2135C266.116 31.2781 266.116 32.0891 266.013 33.4073H249.646C250.102 36.855 251.919 38.3759 255.153 38.3759C258.335 38.3759 259.395 36.8042 259.95 34.9282L265.914 36.6014C264.752 40.9613 261.621 44.3071 255.05 44.3071Z" fill="#291547"/>
<path d="M239.932 12.5703V43.6472H233.008V12.5703H239.932Z" fill="#291547"/>
<path d="M218.315 38.1215C221.751 38.1215 223.318 35.688 223.318 31.5309C223.318 27.5257 221.803 25.1938 218.315 25.1938C215.133 25.1938 213.264 27.3737 213.264 31.3281V31.7844C213.264 35.688 215.133 38.1215 218.315 38.1215ZM213.264 12.5703V26.1064H213.367C214.526 21.0366 217.255 18.9582 221.398 18.9582C227.155 18.9582 230.139 23.6729 230.139 31.4801C230.139 39.5916 227.056 44.3571 221.247 44.3571C217.105 44.3571 214.526 42.2279 213.367 37.1581H213.264V43.6472H206.344V12.5703H213.264Z" fill="#291547"/>
<path d="M191.452 38.5786C194.385 38.5786 196.305 36.8549 196.305 34.4214V33.7116H191.151C189.131 33.7116 187.917 34.6242 187.917 35.9423C187.917 37.4124 188.825 38.5786 191.452 38.5786ZM196.305 43.6484V37.7676H196.202C195.142 41.8739 192.516 44.1551 188.472 44.1551C184.33 44.1551 181.199 41.8739 181.199 37.1589C181.199 32.799 183.774 29.808 190.087 29.808H196.305V28.7942C196.305 26.2087 195.19 24.789 192.563 24.789C190.29 24.789 188.825 25.8032 188.373 28.5914L181.905 27.6788C182.513 22.6598 185.441 19.0605 192.869 19.0605C200.142 19.0605 203.173 22.609 203.173 28.7434V43.6484H196.305Z" fill="#291547"/>
<path d="M166.328 36.093V25.3964H163.551V19.6168H166.328V13.584H173.201V19.6168H179.514V25.3964H173.201V34.7749C173.201 36.7017 173.907 37.6139 175.978 37.6139C177.042 37.6139 178.252 37.2592 179.113 37.0564L179.871 43.4444C178.049 44.0019 176.839 44.3566 174.213 44.3566C168.653 44.3566 166.328 40.6557 166.328 36.093Z" fill="#291547"/>
<path d="M146.01 29.5544V43.648H139.086V19.6181H146.01V26.3607H146.061C147.173 20.8346 150.049 18.959 153.89 18.959C159.092 18.959 161.266 22.4063 161.266 27.5772V43.648H154.394V29.5544C154.394 27.0705 153.283 25.1945 150.402 25.1945C147.625 25.1945 146.01 26.817 146.01 29.5544Z" fill="#291547"/>
<path d="M128.417 43.6456V36.9533H128.314C127.205 42.4286 124.375 44.355 120.536 44.355C115.332 44.355 113.109 40.9077 113.109 35.686V19.6152H120.031V33.7088C120.031 36.1931 121.142 38.1195 124.022 38.1195C126.8 38.1195 128.417 36.497 128.417 33.7088V19.6152H135.289V43.6456H128.417Z" fill="#291547"/>
<path d="M98.0646 44.3578C90.3351 44.3578 85.6367 39.5416 85.6367 31.6332C85.6367 23.6228 90.4867 18.959 98.0646 18.959C105.592 18.959 110.442 23.6228 110.442 31.6332C110.442 39.5416 105.744 44.3578 98.0646 44.3578ZM98.0646 25.2453C94.528 25.2453 92.5579 27.7292 92.5579 31.5824C92.5579 35.486 94.4776 38.0207 98.0142 38.0207C101.601 38.0207 103.571 35.486 103.571 31.5824C103.571 27.7292 101.55 25.2453 98.0646 25.2453Z" fill="#291547"/>
<path d="M76.9922 30.0615C76.4363 27.2733 75.0722 25.2453 71.9907 25.2453C68.9093 25.2453 66.686 27.1717 66.686 31.5824C66.686 35.8916 68.8077 38.0207 72.0411 38.0207C75.2238 38.0207 76.4363 35.8408 77.0426 32.799L83.6607 34.0663C82.8524 40.3531 79.3666 44.3578 72.1927 44.3578C64.6148 44.3578 59.6133 40.0995 59.6133 31.7852C59.6133 23.6736 64.5136 18.959 72.0411 18.959C79.5686 18.959 82.7009 22.6598 83.6607 29.0981L76.9922 30.0615Z" fill="#291547"/>
<path d="M50.9688 30.0615C50.4129 27.2733 49.0487 25.2453 45.9673 25.2453C42.8858 25.2453 40.6626 27.1717 40.6626 31.5824C40.6626 35.8916 42.7842 38.0207 46.0177 38.0207C49.2003 38.0207 50.4129 35.8408 51.0192 32.799L57.6372 34.0663C56.829 40.3531 53.3432 44.3578 46.1692 44.3578C38.5914 44.3578 33.5898 40.0995 33.5898 31.7852C33.5898 23.6736 38.4902 18.959 46.0177 18.959C53.5452 18.959 56.6774 22.6598 57.6372 29.0981L50.9688 30.0615Z" fill="#291547"/>
<path d="M23.8241 16.4909C22.8487 13.8132 20.3 12.0977 17.5664 12.0977C14.8328 12.0977 12.2841 13.8132 11.3086 16.4909L1.55225 43.2716C1.48591 43.4537 1.62089 43.6463 1.81483 43.6463H8.13614C8.35093 43.6463 8.54281 43.512 8.61625 43.3104L10.7924 37.3369C10.8658 37.1353 11.0577 37.001 11.2725 37.001H23.8602C24.075 37.001 24.2669 37.1353 24.3403 37.3369L26.5164 43.3104C26.5899 43.512 26.7818 43.6463 26.9966 43.6463H33.3179C33.5118 43.6463 33.6468 43.4537 33.5804 43.2716L23.8241 16.4909ZM13.4722 29.9812L17.2317 19.6614C17.3454 19.3492 17.7873 19.3492 17.901 19.6614L21.6606 29.9812C21.7269 30.1633 21.5919 30.3559 21.398 30.3559H13.7348C13.5409 30.3559 13.4058 30.1633 13.4722 29.9812Z" fill="#291547"/>
<path d="M10.7613 0.225944C8.75301 0.984702 8.02804 3.42543 9.01716 5.3293C9.74437 6.72911 10.9762 7.68722 12.0425 8.30012C12.7985 8.73467 13.5304 9.15805 13.9185 9.38286C14.0692 9.47014 14.2583 9.40135 14.3176 9.23773C14.4704 8.8162 14.7586 8.02187 15.0582 7.20347C15.5445 5.87475 15.9045 4.05469 15.2606 2.28712C14.5986 0.470022 12.5771 -0.46011 10.7613 0.225944Z" fill="#291547"/>
<path d="M0.420606 8.9362C-0.629321 10.8067 0.385339 13.1414 2.36749 13.9645C3.82481 14.5696 5.38453 14.5125 6.59537 14.2973C7.45381 14.1448 8.2866 13.9991 8.72853 13.9221C8.90006 13.8921 9.00073 13.718 8.94087 13.5546C8.78672 13.1337 8.49653 12.3403 8.19957 11.5213C7.71734 10.1915 6.8224 8.56643 5.19231 7.62613C3.51645 6.65948 1.36993 7.24496 0.420606 8.9362Z" fill="#291547"/>
<path d="M24.2904 0.19528C22.2638 -0.513111 20.1382 0.890938 19.671 2.98462C19.3275 4.52391 19.6547 6.04897 20.0772 7.20324C20.3767 8.02158 20.665 8.81596 20.8177 9.23745C20.877 9.40106 21.0661 9.4698 21.2168 9.38258C21.6049 9.15776 22.3368 8.73438 23.0928 8.29983C24.3202 7.59429 25.767 6.4313 26.411 4.66373C27.0729 2.84658 26.1228 0.835824 24.2904 0.19528Z" fill="#291547"/>
<path d="M34.669 8.86081C33.5726 7.01713 31.0415 6.72765 29.337 8.03119C28.0837 8.98958 27.3534 10.3676 26.9344 11.5229C26.6374 12.3419 26.3473 13.1353 26.1932 13.5563C26.1333 13.7196 26.234 13.8938 26.4055 13.9237C26.8474 14.0007 27.6803 14.1464 28.5387 14.299C29.9326 14.5467 31.7887 14.5849 33.4189 13.6446C35.0947 12.6779 35.6604 10.5279 34.669 8.86081Z" fill="#291547"/>
</g>
<defs>
<clipPath id="clip0_6187_30719">
<path d="M0 9.99999C0 4.47714 4.47715 0 10 0H256.116C261.639 0 266.116 4.47715 266.116 10V62.3579C266.116 67.8807 261.639 72.3578 256.116 72.3578H10C4.47716 72.3578 0 67.8807 0 62.3578V9.99999Z" fill="white"/>
</clipPath>
</defs>
</svg>
