<svg xmlns="http://www.w3.org/2000/svg" width="487" height="142" viewBox="0 0 487 142" fill="none"><g clip-path="url(#clip0_1530_2548)"><path d="M2.36712 97.7238C0.763588 96.2822 0 94.0819 0 91.3505V8.64947C0 5.91806 0.763588 3.79363 2.36712 2.27618C3.8943 0.758725 6.1087 0 8.85762 0H37.1104C53.6039 0 66.3558 4.40061 75.4425 13.1259C84.5292 21.8513 89.1107 34.1426 89.1107 49.9241C89.1107 65.7815 84.5292 78.1487 75.4425 86.8741C66.3558 95.5994 53.6039 100 37.1104 100H8.85762C6.1087 100 3.8943 99.2413 2.36712 97.7238ZM35.965 85.129C59.1017 85.129 70.6319 73.3687 70.6319 49.9241C70.6319 26.5554 59.1017 14.871 35.965 14.871H18.4025V85.129H35.965Z" fill="#21005C"></path><path d="M165.317 81.7149C166.309 82.9289 166.844 84.5981 166.844 86.6466C166.844 89.6056 165.088 92.0336 161.575 94.0062C158.368 95.8272 154.703 97.2688 150.58 98.331C146.456 99.3932 142.562 100 138.897 100C127.672 100 118.738 96.8135 112.171 90.3644C105.604 83.9152 102.321 75.114 102.321 63.9607C102.321 56.9046 103.772 50.6072 106.597 45.0685C109.422 39.6056 113.469 35.3568 118.662 32.3219C123.854 29.287 129.734 27.7695 136.3 27.7695C142.562 27.7695 148.06 29.1352 152.718 31.8666C157.375 34.5981 160.964 38.4676 163.561 43.4751C166.157 48.4827 167.378 54.4008 167.378 61.2293C167.378 65.3264 165.546 67.2991 161.957 67.2991H119.807C120.341 73.8242 122.25 78.6041 125.381 81.7149C128.512 84.8257 133.093 86.3431 139.126 86.3431C142.18 86.3431 144.853 85.9638 147.22 85.205C149.587 84.4463 152.183 83.3841 155.161 82.0943C157.986 80.5768 160.124 79.8181 161.423 79.8181C162.95 79.894 164.248 80.5009 165.317 81.7149ZM124.999 44.8409C122.098 47.8758 120.341 52.2005 119.807 57.8909H152.107C151.878 52.1246 150.503 47.724 147.831 44.765C145.158 41.806 141.417 40.2885 136.682 40.2885C131.795 40.2885 127.901 41.8059 124.999 44.8409Z" fill="#21005C"></path><path d="M209.834 62.9741L230.833 85.5082C232.513 87.1774 233.429 89.1501 233.429 91.3504C233.429 93.399 232.589 95.2958 230.985 96.965C229.382 98.6342 227.473 99.4688 225.259 99.4688C222.891 99.4688 220.83 98.4824 219.15 96.5098L179.291 53.2624C177.611 51.5932 176.694 49.6205 176.694 47.4202C176.694 45.2199 177.534 43.399 179.138 41.8057C180.741 40.2123 182.574 39.4536 184.712 39.4536C187.003 39.4536 189.064 40.3641 190.821 42.2609L209.834 62.9741Z" fill="#21005C"></path><path d="M242.286 63.2777L263.285 85.8119C264.965 87.481 265.881 89.4537 265.881 91.654C265.881 93.7026 265.041 95.5994 263.438 97.2686C261.834 98.9378 259.925 99.7724 257.711 99.7724C255.344 99.7724 253.282 98.7861 251.602 96.8134L200.9 42.0334C199.22 40.3642 198.304 38.3915 198.304 36.1912C198.304 33.9909 199.144 32.17 200.747 30.5767C202.351 28.9833 204.183 28.2246 206.321 28.2246C208.612 28.2246 210.674 29.1351 212.43 31.0319L231.443 51.7451L242.286 63.2777Z" fill="#21005C"></path><path d="M325.976 92.9437C325.976 95.2198 325.06 96.9649 323.227 98.103C321.394 99.2411 318.722 99.7722 315.286 99.6204L311.468 99.3169C295.509 98.1789 287.491 89.6811 287.491 73.7479V42.8678H280.237C277.641 42.8678 275.655 42.3367 274.281 41.1986C272.906 40.0605 272.219 38.3913 272.219 36.2669C272.219 34.0666 272.906 32.4732 274.281 31.3352C275.655 30.1971 277.641 29.666 280.237 29.666H287.338V16.4641C287.338 13.8845 288.178 11.9118 289.782 10.3943C291.385 8.87689 293.6 8.11816 296.349 8.11816C299.021 8.11816 301.159 8.87689 302.763 10.3943C304.366 11.9118 305.206 13.9603 305.206 16.4641V29.5142H317.347C319.943 29.5142 321.929 30.0453 323.303 31.1834C324.678 32.3215 325.365 33.9907 325.365 36.1151C325.365 38.3154 324.678 39.9088 323.303 41.0468C321.929 42.1849 319.943 42.716 317.347 42.716H305.206V74.886C305.206 81.8663 308.413 85.6599 314.904 86.1151L318.722 86.4186C323.609 86.798 325.976 88.9983 325.976 92.9437Z" fill="#21005C"></path><path d="M394.393 81.7149C395.386 82.9289 395.92 84.5981 395.92 86.6466C395.92 89.6056 394.164 92.0336 390.651 94.0062C387.444 95.8272 383.779 97.2688 379.656 98.331C375.532 99.3932 371.638 100 367.973 100C356.748 100 347.814 96.8135 341.247 90.3644C334.68 83.9152 331.397 75.114 331.397 63.9607C331.397 56.9046 332.848 50.6072 335.673 45.0685C338.498 39.6056 342.545 35.3568 347.738 32.3219C352.93 29.287 358.81 27.7695 365.377 27.7695C371.638 27.7695 377.136 29.1352 381.794 31.8666C386.452 34.5981 390.041 38.4676 392.637 43.4751C395.233 48.4827 396.455 54.4008 396.455 61.2293C396.455 65.3264 394.622 67.2991 391.033 67.2991H348.959C349.494 73.8242 351.403 78.6041 354.534 81.7149C357.664 84.8257 362.246 86.3431 368.278 86.3431C371.333 86.3431 374.005 85.9638 376.372 85.205C378.739 84.4463 381.336 83.3841 384.314 82.0943C387.139 80.5768 389.277 79.8181 390.575 79.8181C392.102 79.894 393.4 80.5009 394.393 81.7149ZM354.152 44.8409C351.25 47.8758 349.494 52.2005 348.959 57.8909H381.259C381.03 52.1246 379.656 47.724 376.983 44.765C374.311 41.806 370.569 40.2885 365.835 40.2885C360.948 40.2885 357.054 41.8059 354.152 44.8409Z" fill="#21005C"></path><path d="M455.862 29.6661C457.313 30.8801 458 32.7769 458 35.2048C458 37.7845 457.389 39.6813 456.168 40.8952C454.946 42.1092 452.655 42.9438 449.448 43.3231L445.172 43.7784C439.521 44.3095 435.474 46.2063 432.802 49.4688C430.206 52.6555 428.908 56.6767 428.908 61.5326V91.3505C428.908 94.0819 428.068 96.2063 426.311 97.6479C424.555 99.0895 422.493 99.8482 419.897 99.8482C417.301 99.8482 415.239 99.0895 413.559 97.6479C411.879 96.2063 411.04 94.0819 411.04 91.3505V36.3429C411.04 33.6873 411.879 31.6388 413.559 30.2731C415.239 28.8315 417.301 28.1486 419.744 28.1486C422.188 28.1486 424.25 28.8315 425.777 30.1972C427.304 31.5629 428.068 33.5356 428.068 36.1153V41.7298C429.9 37.5568 432.573 34.3702 436.162 32.094C439.75 29.8178 443.721 28.528 448.074 28.3004L450.059 28.1486C452.502 27.921 454.488 28.4521 455.862 29.6661Z" fill="#21005C"></path><path d="M262.216 30.5767C260.613 28.9833 258.78 28.2246 256.566 28.2246C254.275 28.2246 252.213 29.1351 250.457 31.0319L231.443 51.7451L227.015 56.5251C226.633 56.9044 226.404 57.3597 226.404 57.9666C226.404 58.4978 226.633 59.0289 227.015 59.4082C227.244 59.6358 228.847 61.0774 231.291 60.9257C233.582 60.7739 234.88 59.2565 235.032 58.953L235.567 58.346L236.56 57.2838L242.21 63.2777L261.911 41.9575C263.591 40.2883 264.507 38.3157 264.507 36.1154C264.583 33.9909 263.82 32.17 262.216 30.5767Z" fill="#47C0F0"></path><path d="M262.216 30.5767C260.613 28.9833 258.78 28.2246 256.566 28.2246C254.275 28.2246 252.213 29.1351 250.457 31.0319L231.443 51.7451L227.015 56.5251C226.633 56.9044 226.404 57.3597 226.404 57.9666C226.404 58.4978 226.633 59.0289 227.015 59.4082C227.244 59.6358 228.847 61.0774 231.291 60.9257C233.582 60.7739 234.88 59.2565 235.032 58.953L235.567 58.346L236.56 57.2838L242.21 63.2777L261.911 41.9575C263.591 40.2883 264.507 38.3157 264.507 36.1154C264.583 33.9909 263.82 32.17 262.216 30.5767Z" fill="#3BDFFF"></path><path d="M199.373 75.0381L201.129 73.1413L201.663 72.5343C201.893 72.3067 203.343 70.8651 203.343 68.5889C203.343 66.161 201.74 64.7194 201.511 64.4918C201.129 64.1124 200.594 63.9607 199.984 64.0365C199.449 64.1124 198.915 64.34 198.609 64.7194V64.7953L194.333 69.4235L190.744 73.293L179.519 85.4326L179.367 85.5843C177.687 87.2535 176.771 89.2262 176.771 91.4265C176.771 93.4751 177.61 95.3719 179.214 96.9652C180.818 98.5586 182.65 99.3931 184.788 99.3931C187.079 99.3931 189.141 98.4827 190.897 96.5859L204.947 81.1079L199.373 75.0381Z" fill="#3BDFFF"></path></g><path d="M181.799 137.282C185.211 137.282 187.521 134.684 187.521 130.733V130.706C187.521 126.755 185.238 124.239 181.799 124.239C179.727 124.239 178.126 125.298 177.258 127.022V124.507H176V141.871H177.286V134.553C178.181 136.25 179.754 137.282 181.799 137.282ZM181.614 136.169C178.859 136.169 177.177 133.997 177.177 130.864V130.679C177.177 127.497 178.832 125.353 181.614 125.353C184.397 125.353 186.154 127.393 186.154 130.63V130.87C186.154 134.106 184.446 136.174 181.614 136.174V136.169Z" fill="#21005C"></path><path d="M195.137 136.169C192.224 136.169 190.412 134.073 190.412 130.815V130.711C190.412 127.475 192.251 125.358 195.191 125.358C198.131 125.358 199.916 127.481 199.916 130.711V130.815C199.916 134.051 198.077 136.169 195.137 136.169ZM195.137 137.282C198.788 137.282 201.229 134.602 201.229 130.761C201.229 126.919 198.815 124.239 195.191 124.239C191.568 124.239 189.1 126.891 189.1 130.761C189.1 134.63 191.486 137.282 195.137 137.282Z" fill="#21005C"></path><path d="M203.485 124.501H202.146L206.029 137.014H207.082L210.624 126.171L214.166 137.014H215.218L219.075 124.501H217.762L214.665 134.864L211.253 124.501H209.995L206.556 134.837L203.485 124.501Z" fill="#21005C"></path><path d="M225.844 137.282C229.099 137.282 230.829 135.557 231.513 133.626L230.412 133.227C229.837 134.793 228.524 136.169 225.844 136.169C222.931 136.169 221.201 134.073 221.12 131.132H231.382V130.657C231.382 126.679 229.229 124.239 225.817 124.239C222.405 124.239 219.834 126.941 219.834 130.788C219.834 134.635 222.091 137.282 225.844 137.282ZM225.79 125.353C228.361 125.353 229.961 127.104 230.016 130.095H221.12C221.331 127.23 223.165 125.353 225.79 125.353Z" fill="#21005C"></path><path d="M235.288 124.501H234.057V137.015H235.37V130.81C235.37 127.443 236.08 125.696 238.863 125.696H239.861V124.479H239.129C236.845 124.479 235.771 125.462 235.299 127.263V124.507L235.288 124.501Z" fill="#21005C"></path><path d="M246.424 137.282C249.679 137.282 251.409 135.557 252.093 133.626L250.992 133.227C250.417 134.793 249.104 136.169 246.424 136.169C243.511 136.169 241.781 134.073 241.7 131.132H251.963V130.657C251.963 126.679 249.809 124.239 246.397 124.239C242.985 124.239 240.414 126.941 240.414 130.788C240.414 134.635 242.671 137.282 246.424 137.282ZM246.37 125.353C248.941 125.353 250.541 127.104 250.596 130.095H241.7C241.911 127.23 243.745 125.353 246.37 125.353Z" fill="#21005C"></path><path d="M259.492 137.282C261.564 137.282 263.191 136.196 264.059 134.444V137.014H265.318V119.147H264.059V127.071C263.169 125.32 261.564 124.234 259.492 124.234C256.053 124.234 253.769 126.804 253.769 130.755C253.769 134.706 256.08 137.276 259.492 137.276V137.282ZM259.676 136.168C256.839 136.168 255.136 134.127 255.136 130.891V130.651C255.136 127.415 256.866 125.347 259.676 125.347C262.486 125.347 264.113 127.491 264.113 130.651V130.837C264.113 133.964 262.432 136.163 259.676 136.163V136.168Z" fill="#21005C"></path><path d="M279.584 137.282C282.996 137.282 285.306 134.684 285.306 130.733V130.706C285.306 126.782 283.023 124.239 279.584 124.239C277.511 124.239 275.884 125.325 275.016 127.049V119.147H273.758V137.014H275.016V134.498C275.911 136.223 277.511 137.282 279.584 137.282ZM279.372 136.168C276.616 136.168 274.962 133.996 274.962 130.864V130.678C274.962 127.497 276.616 125.352 279.372 125.352C282.128 125.352 283.939 127.393 283.939 130.629V130.869C283.939 134.106 282.209 136.174 279.372 136.174V136.168Z" fill="#21005C"></path><path d="M286.033 140.725V141.893H287.292C290.15 141.893 290.785 140.621 292.119 137.096L296.79 124.506H295.477L291.669 134.951L287.286 124.506H285.946L291.067 136.436C289.727 140.07 289.337 140.73 287.237 140.73H286.028L286.033 140.725Z" fill="#21005C"></path><path d="M316.28 117.86H300.473V121.32H306.879V137.746H310.508V121.32H316.274V117.86H316.28Z" fill="#21005C"></path><path d="M321.715 137.751C325.349 137.751 327.389 136.07 328.365 133.789L325.176 132.649C324.731 133.849 323.847 134.842 321.775 134.842C319.702 134.842 318.493 133.702 318.26 131.661H328.365V130.4C328.365 125.925 325.854 123.077 321.628 123.077C317.402 123.077 314.652 126.138 314.652 130.52C314.652 134.902 317.37 137.756 321.715 137.756V137.751ZM321.617 125.931C323.51 125.931 324.601 126.984 324.753 129.052H318.281C318.547 127.071 319.849 125.931 321.623 125.931H321.617Z" fill="#21005C"></path><path d="M335.086 137.751C337.158 137.751 339.81 135.448 339.81 135.448V137.407H343.244V128.408C343.244 124.528 340.993 122.831 337.304 122.831C333.616 122.831 331.045 124.981 330.931 128.223H334.234V128.01C334.321 126.738 335.183 125.772 337.033 125.772C338.883 125.772 339.599 126.558 339.599 127.404V127.546C339.599 127.546 338.286 128.452 335.71 128.97C332.569 129.669 330.226 130.395 330.226 133.603C330.226 136.086 332.097 137.751 335.086 137.751ZM336.078 135.055C334.804 135.055 334.061 134.389 334.061 133.423C334.061 132.152 335.129 131.672 336.55 131.306C337.706 131 339.008 130.76 339.81 130.275V131.486C339.724 134.155 337.825 135.061 336.078 135.061V135.055Z" fill="#21005C"></path><path d="M349.889 123.377H346.266V137.751H350.101V129.636C350.101 127.464 351.207 126.411 352.547 126.411C354.033 126.411 354.793 127.317 354.793 129.063V137.751H358.416V129.636C358.416 127.557 359.29 126.411 360.863 126.411C362.316 126.411 363.108 127.317 363.108 129.216V137.751H366.732V128.921C366.732 125.238 365.05 123.071 362.333 123.071C359.908 123.071 358.405 124.321 357.787 126.084C357.076 123.83 355.514 123.071 353.947 123.071C351.967 123.071 350.611 124.015 349.9 125.691V123.377H349.889Z" fill="#21005C"></path><path d="M373.463 117.625L369.742 120.048V137.746H373.463V117.62V117.625Z" fill="#21005C"></path><path d="M382.853 137.751C386.487 137.751 388.527 136.07 389.503 133.789L386.314 132.649C385.869 133.849 384.985 134.842 382.913 134.842C380.841 134.842 379.631 133.702 379.398 131.661H389.503V130.4C389.503 125.925 386.992 123.077 382.766 123.077C378.541 123.077 375.791 126.138 375.791 130.52C375.791 134.902 378.508 137.756 382.853 137.756V137.751ZM382.755 125.931C384.649 125.931 385.739 126.984 385.891 129.052H379.419C379.685 127.071 380.987 125.931 382.761 125.931H382.755Z" fill="#21005C"></path><path d="M396.202 137.751C398.269 137.751 400.721 135.486 400.721 135.486V137.435H404.144V128.567C404.144 124.747 401.898 123.071 398.215 123.071C394.532 123.071 391.971 125.189 391.857 128.387H395.367V128.179C395.454 126.924 396.316 125.974 398.155 125.974C399.994 125.974 400.715 126.749 400.715 127.584V127.704C400.715 127.704 399.381 128.599 396.815 129.107C393.685 129.794 391.353 130.509 391.353 133.669C391.353 136.114 393.214 137.751 396.197 137.751H396.202ZM397 135.115C395.73 135.115 394.993 134.46 394.993 133.505C394.993 132.25 396.056 131.775 397.477 131.415C398.633 131.115 399.929 130.88 400.732 130.4V131.595C400.64 134.22 398.746 135.115 397.005 135.115H397Z" fill="#21005C"></path><path d="M412.834 137.751C414.618 137.751 415.833 136.944 416.799 135.634V137.451H420.422V117.391L416.799 119.803V124.96C415.833 123.65 414.618 123.088 412.866 123.088C409.362 123.088 406.704 126.007 406.704 130.482C406.704 134.957 409.389 137.757 412.834 137.757V137.751ZM413.604 134.75C411.532 134.75 410.197 133.369 410.197 130.575V130.362C410.197 127.568 411.591 126.035 413.604 126.035C415.768 126.035 417.016 127.656 417.016 130.209V130.45C417.016 133.004 415.709 134.744 413.604 134.744V134.75Z" fill="#21005C"></path><path d="M430.04 137.751C433.674 137.751 435.713 136.07 436.69 133.789L433.5 132.649C433.055 133.849 432.171 134.842 430.105 134.842C428.038 134.842 426.828 133.702 426.59 131.661H436.695V130.4C436.695 125.925 434.184 123.077 429.958 123.077C425.733 123.077 422.982 126.138 422.982 130.52C422.982 134.902 425.705 137.756 430.045 137.756L430.04 137.751ZM429.904 125.931C431.797 125.931 432.893 126.984 433.039 129.052H426.562C426.828 127.071 428.13 125.931 429.904 125.931Z" fill="#21005C"></path><path d="M442.966 123.306H439.245V137.746H442.966V130.548C442.966 127.934 443.574 126.853 445.738 126.853H447.154V123.066H446.866C444.355 123.066 443.346 124.277 442.972 125.996V123.306H442.966Z" fill="#21005C"></path><path d="M462.185 132.152L452.508 116.19H462.185V132.152Z" fill="#00B2B2"></path><path d="M462.19 114.962H439.202L462.19 99V114.962Z" fill="#00B2B2"></path><path d="M477.552 122.329L463.405 132.152V99.0054L477.552 122.329Z" fill="#00B2B2"></path><path d="M475.247 116.19L478.55 121.631L486.388 116.19H475.247Z" fill="#00B2B2"></path><defs><clipPath id="clip0_1530_2548"><rect width="458" height="100" fill="white"></rect></clipPath></defs></svg>