<svg id="a" xmlns="http://www.w3.org/2000/svg" width="100" height="48" viewBox="0 0 100 48"><path d="M3.24,47.79c2.78,0,5.15-.84,6.96-2.64,1.81-1.81,2.78-4.04,2.78-6.68V14.25c0-.84-.28-1.67-.99-2.23s-1.39-.99-2.37-.99c-.89-.04-1.76.32-2.37.97-.7.56-.99,1.39-.99,2.23v24.35c0,.99-.28,1.81-.99,2.37s-1.39.99-2.37.99c-.84,0-1.53.28-2.09.99-.56.56-.84,1.25-.84,2.09s.28,1.53.84,2.09c.84.42,1.53.7,2.37.7l.04-.02ZM6.86,6.88c.7.7,1.67.99,2.92.99s2.23-.28,2.92-.99c.69-.71.99-1.53.99-2.78,0-2.64-1.25-3.9-3.9-3.9s-3.9,1.25-3.9,3.9c0,1.25.28,2.09.99,2.78h-.03ZM20.47,35.4c2.37,2.37,5.57,3.48,9.74,3.48s7.38-1.12,9.74-3.48c2.37-2.36,3.48-5.84,3.48-10.58s-1.12-8.21-3.48-10.58c-2.36-2.37-5.57-3.48-9.74-3.48s-7.38,1.12-9.74,3.48c-2.37,2.36-3.48,5.84-3.48,10.58s1.25,8.21,3.48,10.58ZM30.35,16.06c4.45,0,6.68,2.92,6.68,8.77,0,2.92-.56,5.01-1.67,6.54-1.11,1.53-2.78,2.23-5.01,2.23s-3.9-.7-5.01-2.23c-1.12-1.53-1.67-3.62-1.67-6.54,0-5.84,2.23-8.77,6.68-8.77ZM48.65,37.63c.7.56,1.39.99,2.37.99.89.04,1.76-.32,2.37-.97.7-.56.99-1.39.99-2.23v-12.11c0-1.95.56-3.62,1.67-4.73,1.11-1.11,2.78-1.81,4.87-1.81.84,0,1.53-.28,2.23-.84.56-.56.84-1.25.84-2.09s-.28-1.53-.84-2.09-1.39-.84-2.23-.84c-1.25,0-2.64.28-3.76.99-1.19.63-2.15,1.6-2.78,2.78v-.28c0-.84-.28-1.67-.99-2.23s-1.39-.99-2.37-.99c-.89-.04-1.76.32-2.37.97-.7.56-.99,1.39-.99,2.23v21.29c.14.56.42,1.39.99,1.95h0ZM67.99,16.89h1.39v13.78c-.05,2.15.81,4.22,2.37,5.7,1.53,1.53,3.76,2.23,6.4,2.23.84,0,1.39-.28,1.95-.84.56-.56.84-1.12.84-1.95,0-.7-.28-1.39-.84-1.95-.56-.56-1.25-.84-1.95-.84-.56,0-1.12-.14-1.53-.56-.42-.41-.7-.84-.7-1.53v-14.05h2.78c.7,0,1.39-.28,1.95-.84.56-.56.84-1.12.84-1.95,0-.7-.28-1.39-.84-1.95-.56-.56-1.12-.84-1.95-.84h-2.78v-4.87c0-.84-.28-1.53-.99-2.09-.71-.56-1.39-.99-2.23-.99s-1.67.28-2.23.99c-.7.56-.99,1.39-.99,2.09v4.87h-1.39c-.7,0-1.39.28-1.95.84-.56.56-.84,1.12-.84,1.95,0,.7.28,1.39.84,1.95.56.56,1.12.84,1.81.84h.03ZM86.5,16.89h1.39v13.78c-.05,2.15.81,4.22,2.37,5.7,1.53,1.53,3.76,2.23,6.4,2.23.84,0,1.39-.28,1.95-.84.56-.56.84-1.12.84-1.95,0-.7-.28-1.39-.84-1.95-.56-.56-1.25-.84-1.95-.84-.56,0-1.12-.14-1.53-.56-.42-.41-.7-.84-.7-1.53v-14.05h2.78c.7,0,1.39-.28,1.95-.84.56-.56.84-1.12.84-1.95,0-.7-.28-1.39-.84-1.95s-1.12-.84-1.95-.84h-2.75v-4.87c0-.84-.28-1.53-.99-2.09s-1.39-.99-2.23-.99-1.67.28-2.23.99c-.7.56-.99,1.39-.99,2.09v4.87h-1.39c-.7,0-1.39.28-1.95.84s-.84,1.12-.84,1.95c0,.7.28,1.39.84,1.95.42.56,1.12.84,1.81.84h0Z" style="fill:#39c;"></path></svg>
