<svg xmlns="http://www.w3.org/2000/svg" viewBox="0 0 28 26">
  <path d="M 26.1 13.017 C 25.298 13.318 24.404 12.912 24.102 12.11 L 21.635 5.546 C 20.677 2.998 19.777 2.865 18.846 5.587 L 17.496 9.532 C 16.683 11.91 15.356 13.116 13.553 13.116 C 11.749 13.116 10.423 11.91 9.609 9.532 L 8.26 5.587 C 7.329 2.865 6.428 2.999 5.471 5.546 L 3.003 12.11 C 2.702 12.912 1.808 13.318 1.006 13.017 C 0.204 12.715 -0.202 11.821 0.1 11.019 L 2.567 4.454 C 3.259 2.613 4.38 0.5 6.923 0.5 C 9.798 0.5 10.85 3.573 11.195 4.583 L 12.545 8.528 C 13.388 10.992 14.08 9.936 14.561 8.528 L 15.911 4.583 C 16.256 3.574 17.307 0.5 20.183 0.5 C 22.726 0.5 23.847 2.613 24.539 4.454 L 27.006 11.019 C 27.308 11.821 26.902 12.715 26.1 13.017 Z
    M 25.519 16.487 C 24.794 16.03 23.836 16.247 23.379 16.972 C 21.237 20.369 17.564 22.398 13.553 22.398 C 9.542 22.398 5.869 20.369 3.727 16.972 C 3.27 16.248 2.312 16.03 1.587 16.487 C 0.863 16.944 0.646 17.902 1.102 18.627 C 3.816 22.931 8.471 25.5 13.553 25.5 C 18.635 25.5 23.29 22.931 26.004 18.627 C 26.46 17.902 26.243 16.944 25.519 16.487 Z" fill="rgb(52,152,219)"></path>
</svg>
