<?xml version="1.0" encoding="utf-8"?>
<!-- Generator: Adobe Illustrator 27.8.0, SVG Export Plug-In . SVG Version: 6.00 Build 0)  -->
<svg version="1.1" id="Laag_1" xmlns="http://www.w3.org/2000/svg" xmlns:xlink="http://www.w3.org/1999/xlink" x="0px" y="0px"
	 viewBox="0 0 622.6 149.7" style="enable-background:new 0 0 622.6 149.7;" xml:space="preserve">
<style type="text/css">
	.st0{fill:url(#SVGID_1_);}
	.st1{fill:url(#SVGID_00000026875994837973668130000001534160756010058157_);}
	.st2{fill:#2F4858;}
	.st3{enable-background:new    ;}
	.st4{fill:none;stroke:#2F4858;stroke-width:4.5;stroke-linecap:round;stroke-linejoin:round;}
</style>
<g>
	<g>
		
			<linearGradient id="SVGID_1_" gradientUnits="userSpaceOnUse" x1="0" y1="-555.171" x2="112.0198" y2="-555.171" gradientTransform="matrix(1 0 0 -1 0 -475.1929)">
			<stop  offset="0" style="stop-color:#F8AE2F"/>
			<stop  offset="1" style="stop-color:#FFD031"/>
		</linearGradient>
		<path class="st0" d="M19.3,29c0-0.5,0-1.1,0-1.6c-1.9,1.4-3.7,3-5.3,4.7C4.6,42,0,56.3,0,74.9s4.6,32.7,13.9,42.8
			c9.3,9.9,23.9,15,43.8,15s34.8-5,44.1-15c4.5-4.8,8-10.8,10.2-17.7c-6.1,1.7-12.6,2.6-19.3,2.6C52.1,102.4,19.3,69.6,19.3,29
			L19.3,29L19.3,29z"/>
		
			<linearGradient id="SVGID_00000150806145408960541170000001554475751477556660_" gradientUnits="userSpaceOnUse" x1="67.4812" y1="-577.6287" x2="67.4812" y2="-492.3214" gradientTransform="matrix(1 0 0 -1 0 -475.1929)">
			<stop  offset="0" style="stop-color:#F8AE2F"/>
			<stop  offset="1" style="stop-color:#FFD031"/>
		</linearGradient>
		<path style="fill:url(#SVGID_00000150806145408960541170000001554475751477556660_);" d="M101.6,32.1c-9.3-10-23.9-15-43.8-15
			c-16.4,0-29.2,3.4-38.5,10.2c0,0.5,0,1.1,0,1.6c0,40.6,32.9,73.5,73.5,73.5c6.7,0,13.1-0.9,19.3-2.6c2.4-7.2,3.7-15.6,3.7-25.1
			C115.7,56.3,110.9,42,101.6,32.1L101.6,32.1z"/>
	</g>
	<g>
		<path class="st2" d="M30.7,88.6h52.1c1.2,0,2.2,1,2.2,2.2V101c0,1.2-1,2.2-2.2,2.2H30.7c-1.2,0-2.2-1-2.2-2.2V90.8
			C28.5,89.6,29.5,88.6,30.7,88.6z"/>
		<path class="st2" d="M36.2,68.3h52.2c1.2,0,2.2,1,2.2,2.2v10.2c0,1.2-1,2.2-2.2,2.2H36.2c-1.2,0-2.2-1-2.2-2.2V70.4
			C34,69.3,35,68.3,36.2,68.3z"/>
		<path class="st2" d="M30.4,48h52.3c1.2,0,2.2,1,2.2,2.2v10.2c0,1.2-1,2.2-2.2,2.2H30.4c-1.2,0-2.2-1-2.2-2.2V50.2
			C28.2,49,29.2,48,30.4,48z"/>
	</g>
</g>
<g>
	<g>
		<path class="st2" d="M199.2,95.2c-8.5,0-14.7-2.1-18.7-6.4c-4-4.2-5.9-10.3-5.9-18.2s2-14,6-18.2s10.2-6.4,18.6-6.4
			s14.8,2.1,18.8,6.4s6,10.3,6,18.2s-2,14-5.9,18.2C214,93.1,207.7,95.2,199.2,95.2z M199.2,86c5,0,8.5-1.2,10.6-3.6
			s3.1-6.4,3.1-11.8c0-5.4-1.1-9.4-3.1-11.8s-5.6-3.6-10.6-3.6s-8.4,1.2-10.5,3.6c-2.1,2.4-3.1,6.3-3.1,11.8s1.1,9.4,3.1,11.8
			S194.2,86,199.2,86z"/>
		<path class="st2" d="M231.7,94.2V65c0-11.1-0.4-13.4-1.2-16.6l9.9-1.5c1.2,1.5,1.8,5,1.8,5c2.3-1.9,4.9-3.3,7.7-4.4
			c2.8-1.1,5.8-1.6,9-1.6c3.4,0,6,0.5,7.9,1.6c1.9,1.1,3.3,2.6,4.3,4.5c2.2-1.8,4.7-3.3,7.6-4.4c2.9-1.2,6.3-1.8,10.3-1.8
			c5.5,0,9.5,1.4,12.1,4.2s3.9,7.1,3.9,12.9v19.7c0,6.3,0.5,10.2,1,11.5h-9.5c-1.2-1.2-2.1-4.9-2.1-11.5V64.1c0-3.7-0.8-6.2-2.3-7.7
			s-4-2.2-7.5-2.2c-2.3,0-4.4,0.4-6.4,1.2s-3.8,2-5.2,3.6c0.2,0.7,0.3,1.5,0.4,2.3s0.1,1.7,0.1,2.6v30.3h-10.1v-30
			c0-3.5-0.6-6-1.8-7.6c-1.2-1.6-3.5-2.4-6.8-2.4c-2.3,0-4.5,0.5-6.6,1.6s-4,2.4-5.6,3.9v34.4L231.7,94.2L231.7,94.2z"/>
		<path class="st2" d="M314.2,115.8v-51c0-10.8-0.3-13.8-1.2-16.9l9.4-1.4c0.9,1.3,1.8,5.1,1.8,5.1c2.1-1.9,4.5-3.4,7-4.3
			c2.5-0.9,5.5-1.4,9-1.4c6.8,0,12.1,1.9,15.9,5.5c3.8,3.7,5.7,9.8,5.7,18.3s-2,14.9-5.9,19.1s-9.3,6.3-16.1,6.3
			c-5.7,0-10.6-1.3-14.7-4v24.5L314.2,115.8L314.2,115.8z M337,87c9.2,0,13.8-5.8,13.8-17.3c0-5.6-1-9.6-3.1-11.9
			c-2.1-2.4-5.5-3.5-10.4-3.5s-8.9,1.7-12.2,5v23.6c1.5,1.3,3.2,2.3,5.1,3C332.2,86.7,334.4,87.1,337,87L337,87L337,87z"/>
		<path class="st2" d="M384.8,95.2c-3.3,0-6.4-0.2-9.3-0.7c-3-0.5-5.4-1-7.3-1.7v-9.2c2.3,0.9,4.8,1.5,7.5,2s5.3,0.7,7.8,0.7
			c3.7,0,6.4-0.3,8-1s2.4-2,2.4-3.9c0-1.4-0.5-2.5-1.5-3.3c-1-0.8-2.4-1.5-4.3-2.2c-1.9-0.7-4.3-1.5-7.2-2.4c-2.8-0.9-5.2-2-7.3-3
			c-2.1-1.1-3.7-2.5-4.8-4.2c-1.1-1.7-1.7-4-1.7-6.8c0-4.3,1.6-7.7,4.7-10c3.1-2.4,8.1-3.5,15.1-3.5c2.7,0,5.3,0.2,7.8,0.6
			c2.5,0.4,4.5,0.9,6.3,1.5v9.1c-1.9-0.7-3.9-1.3-6.1-1.7s-4.3-0.6-6.2-0.6c-3.5,0-6.1,0.3-7.8,0.9c-1.8,0.6-2.6,1.8-2.6,3.6
			s0.9,3.2,2.7,3.9c1.8,0.7,4.8,1.8,8.8,3.1c3.7,1.1,6.7,2.3,8.9,3.6c2.2,1.3,3.8,2.8,4.7,4.5c1,1.8,1.5,4,1.5,6.8
			c0,4.7-1.7,8.1-5.1,10.4C396.1,94.1,391.2,95.2,384.8,95.2L384.8,95.2L384.8,95.2z"/>
		<path class="st2" d="M424.3,95.2c-3.9,0-6.8-0.9-8.8-2.8s-3-5-3-9.4V27h10.9v54.9c0,1.9,0.3,3.1,1,3.8c0.7,0.7,1.7,1,3,1
			c1.6,0,3.1-0.2,4.6-0.6V94c-1.3,0.5-2.5,0.8-3.6,0.9S425.8,95.2,424.3,95.2L424.3,95.2L424.3,95.2z"/>
		<path class="st2" d="M460.3,95.2c-8.5,0-14.7-2.1-18.7-6.4c-4-4.2-5.9-10.3-5.9-18.2s2-14,6-18.2s10.2-6.4,18.6-6.4
			s14.8,2.1,18.8,6.4s6,10.3,6,18.2s-2,14-5.9,18.2C475.1,93.1,468.8,95.2,460.3,95.2L460.3,95.2L460.3,95.2z M460.3,86
			c5,0,8.5-1.2,10.6-3.6S474,76,474,70.6c0-5.4-1-9.4-3.1-11.8s-5.6-3.6-10.6-3.6s-8.4,1.2-10.5,3.6s-3.1,6.3-3.1,11.8
			s1,9.4,3.1,11.8C451.8,84.8,455.3,86,460.3,86z"/>
		<path class="st2" d="M492.6,94.2V65c0-11.1-0.4-13.4-1.2-16.6l9.9-1.5c1.2,1.5,1.8,5,1.8,5c2.3-1.9,4.9-3.3,7.7-4.4
			c2.8-1.1,5.8-1.6,9-1.6c3.4,0,6,0.5,7.9,1.6c1.9,1.1,3.3,2.6,4.3,4.5c2.2-1.8,4.7-3.3,7.6-4.4c2.9-1.2,6.3-1.8,10.3-1.8
			c5.5,0,9.5,1.4,12.1,4.2s3.9,7.1,3.9,12.9v19.7c0,6.3,0.5,10.2,1,11.5h-9.5c-1.2-1.2-2.1-4.9-2.1-11.5V64.1c0-3.7-0.8-6.2-2.3-7.7
			s-4-2.2-7.5-2.2c-2.3,0-4.4,0.4-6.4,1.2s-3.8,2-5.2,3.6c0.2,0.7,0.3,1.5,0.4,2.3c0.1,0.8,0.1,1.7,0.1,2.6v30.3h-10.3v-30
			c0-3.5-0.6-6-1.8-7.6s-3.5-2.4-6.8-2.4c-2.3,0-4.5,0.5-6.6,1.6s-4,2.4-5.6,3.9v34.4L492.6,94.2L492.6,94.2z"/>
		<path class="st2" d="M575.1,115.8v-51c0-10.8-0.3-13.8-1.2-16.9l9.4-1.4c0.9,1.3,1.8,5.1,1.8,5.1c2.1-1.9,4.5-3.4,7-4.3
			c2.5-0.9,5.5-1.4,9-1.4c6.8,0,12.1,1.9,15.9,5.5s5.7,9.8,5.7,18.3s-2,14.9-5.9,19.1s-9.3,6.3-16.1,6.3c-5.7,0-10.6-1.3-14.7-4
			v24.5L575.1,115.8L575.1,115.8z M597.9,87c9.2,0,13.8-5.8,13.8-17.3c0-5.6-1-9.6-3.1-11.9c-2.1-2.4-5.5-3.5-10.4-3.5
			s-8.9,1.7-12.2,5v23.6c1.5,1.3,3.2,2.3,5.1,3C593.1,86.7,595.3,87.1,597.9,87L597.9,87L597.9,87z"/>
		<path class="st2" d="M145.9,94.2V47h10l0.6,5.5c2.3-1.5,4.9-2.8,8.1-4c3.1-1.2,6.2-2,9.3-2.5v8.3c-1.9,0.3-3.9,0.8-6,1.5
			s-4.2,1.3-6.1,2.1c-1.9,0.8-3.6,1.5-4.9,2.3v34.1L145.9,94.2L145.9,94.2z"/>
	</g>
	<g class="st3">
		<path class="st2" d="M349.5,145.9c-1.7,0-3.2-0.1-4.8-0.4c-1.5-0.2-2.7-0.5-3.6-0.9v-5.3c1.1,0.4,2.3,0.8,3.7,1s2.7,0.4,3.8,0.4
			c1.6,0,2.7-0.1,3.3-0.3c0.6-0.2,1-0.6,1-1.3c0-0.8-0.5-1.3-1.5-1.6c-1-0.3-2.5-0.8-4.4-1.5c-2-0.7-3.6-1.5-4.7-2.5
			s-1.6-2.4-1.6-4.3c0-2.1,0.8-3.8,2.3-4.9c1.6-1.1,4.1-1.7,7.5-1.7c1.4,0,2.7,0.1,3.9,0.3c1.2,0.2,2.3,0.4,3.1,0.7v5.2
			c-0.8-0.4-1.8-0.7-2.9-0.9c-1.1-0.2-2.1-0.3-3.1-0.3c-1.4,0-2.4,0.1-3.2,0.3c-0.8,0.2-1.2,0.6-1.2,1.2c0,0.7,0.4,1.2,1.3,1.5
			s2.2,0.7,4,1.3c1.8,0.5,3.2,1.1,4.2,1.7c1,0.6,1.7,1.4,2.1,2.2c0.4,0.9,0.6,1.9,0.6,3.2C359.4,143.6,356.1,145.9,349.5,145.9z"/>
		<path class="st2" d="M365.9,145.4v-17.6h-3.3l0.6-4.7h9.1v22.3H365.9z M365.4,119v-5h6.9v5H365.4z"/>
	</g>
	<g class="st3">
		<path class="st2" d="M377.6,145.4v-22.3h5.9l0.2,2.1c0.9-0.7,2.1-1.3,3.5-1.8s2.9-0.8,4.4-0.8c3,0,5.1,0.7,6.5,2.1
			c1.3,1.4,2,3.5,2,6.4v14.3h-6.4v-14c0-1.5-0.3-2.6-0.9-3.2c-0.6-0.6-1.8-0.9-3.4-0.9c-1,0-2,0.2-2.9,0.7c-1,0.4-1.8,1-2.5,1.6
			v15.8L377.6,145.4L377.6,145.4z"/>
	</g>
	<g class="st3">
		<path class="st2" d="M413.8,145.9c-2,0-3.7-0.4-5.3-1.1c-1.6-0.7-2.8-1.9-3.6-3.5c-0.9-1.6-1.3-3.8-1.3-6.4c0-2.7,0.5-4.9,1.5-6.7
			s2.3-3.2,3.9-4.1s3.4-1.4,5.4-1.4c2.4,0,4.5,0.6,6.3,1.7v-10.7h6.4v31.7h-5.5l-0.4-2.1c-1,0.8-2,1.5-3.2,1.9
			C416.8,145.6,415.4,145.9,413.8,145.9z M415.6,141.2c2,0,3.6-0.7,5-2V129c-1.3-1.2-2.9-1.7-4.6-1.7c-4,0-5.9,2.5-5.9,7.6
			c0,2.4,0.5,4,1.5,4.9C412.5,140.8,413.8,141.2,415.6,141.2z"/>
		<path class="st2" d="M440.2,145.9c-1.7,0-3.2-0.1-4.8-0.4c-1.5-0.2-2.7-0.5-3.6-0.9v-5.3c1.1,0.4,2.3,0.8,3.7,1s2.7,0.4,3.8,0.4
			c1.6,0,2.7-0.1,3.3-0.3c0.6-0.2,1-0.6,1-1.3c0-0.8-0.5-1.3-1.5-1.6c-1-0.3-2.5-0.8-4.4-1.5c-2-0.7-3.6-1.5-4.7-2.5
			s-1.6-2.4-1.6-4.3c0-2.1,0.8-3.8,2.3-4.9c1.6-1.1,4.1-1.7,7.5-1.7c1.4,0,2.7,0.1,3.9,0.3c1.2,0.2,2.3,0.4,3.1,0.7v5.2
			c-0.8-0.4-1.8-0.7-2.9-0.9c-1.1-0.2-2.1-0.3-3.1-0.3c-1.4,0-2.4,0.1-3.2,0.3c-0.8,0.2-1.2,0.6-1.2,1.2c0,0.7,0.4,1.2,1.3,1.5
			s2.2,0.7,4,1.3c1.8,0.5,3.2,1.1,4.2,1.7c1,0.6,1.7,1.4,2.1,2.2c0.4,0.9,0.6,1.9,0.6,3.2C450,143.6,446.8,145.9,440.2,145.9z"/>
		<path class="st2" d="M463.9,145.4v-3.1c0.8-1.8,2-3.5,3.3-4.9c1.4-1.5,2.9-2.9,4.5-4.4c1.2-1.1,2.2-2,3-2.7s1.4-1.4,1.8-1.9
			c0.4-0.6,0.8-1.1,0.9-1.7c0.2-0.6,0.3-1.3,0.3-2.2c0-2.9-1.9-4.4-5.6-4.4c-1.3,0-2.5,0.1-3.7,0.4s-2.4,0.6-3.6,1.1V116
			c1.2-0.4,2.6-0.7,4.2-1s3.1-0.4,4.5-0.4c3.5,0,6.2,0.9,7.9,2.6c1.8,1.7,2.7,4.1,2.7,7.1c0,2.1-0.5,3.8-1.5,5.3s-2.3,2.9-4,4.3
			c-1.3,1.1-2.5,2.2-3.7,3.3c-1.2,1.1-2.1,2.2-2.9,3.3h12.4v4.9L463.9,145.4L463.9,145.4z"/>
		<path class="st2" d="M501.7,146.6c-3.3,0-6-0.6-8-1.9c-2-1.3-3.5-3.1-4.4-5.5c-0.9-2.4-1.3-5.3-1.3-8.6c0-3.4,0.4-6.3,1.3-8.7
			c0.9-2.4,2.3-4.2,4.4-5.5c2-1.3,4.7-1.9,8-1.9s6,0.6,8,1.9s3.5,3.1,4.4,5.5c0.9,2.4,1.3,5.3,1.3,8.7c0,3.4-0.4,6.2-1.3,8.6
			c-0.9,2.4-2.3,4.2-4.4,5.5C507.7,146,505.1,146.6,501.7,146.6z M501.7,141.2c2.7,0,4.6-0.9,5.7-2.7c1.1-1.8,1.6-4.4,1.6-7.8
			c0-3.4-0.5-6-1.6-7.8s-2.9-2.7-5.7-2.7s-4.6,0.9-5.7,2.7c-1.1,1.8-1.6,4.4-1.6,7.8c0,3.4,0.5,6,1.6,7.8S499,141.2,501.7,141.2z"/>
		<path class="st2" d="M523.9,145.4v-24.6l-4.9,0.8v-5.3l11.3-1.7v30.8H523.9z"/>
		<path class="st2" d="M543.6,145.9c-0.9,0-1.9-0.1-3-0.2s-2.1-0.3-3.2-0.5c-1-0.2-1.9-0.5-2.7-0.8v-5.5c1.1,0.5,2.4,0.8,3.9,1.1
			s2.8,0.4,4,0.4c2.1,0,3.7-0.3,4.8-1s1.6-1.9,1.6-3.5c0-1.5-0.4-2.6-1.1-3.2c-0.7-0.6-2.1-1-4.2-1h-9.1V128l0.8-12.9h18l-0.5,4.9
			h-12.1l-0.4,6.7h4.6c3.7,0,6.3,0.8,8,2.4c1.7,1.6,2.5,3.9,2.5,7c0,3-1,5.4-3,7.1C550.5,145,547.6,145.9,543.6,145.9z"/>
	</g>
	<g>
		<path class="st4" d="M189.8,112.6c0,0,7.3,14.1,31.4,16.5c24.1,2.5,32.4-13.2,20-16.5c-12.4-3.4-21.7,19.2,23.7,25.6
			c18.2,2.5,31.8-0.5,37.7-2.3"/>
		<polygon class="st2" points="295.8,150.7 293.1,149 301.4,135.9 287.6,128.6 289.1,125.8 305.8,134.7 		"/>
	</g>
</g>
</svg>
