<svg width="200" height="40" viewBox="0 0 200 40" fill="none" xmlns="http://www.w3.org/2000/svg">
<path d="M45.0421 27.3126C34.9906 27.3126 26.8097 19.0759 26.8097 9.02437V8.88477H18.4334V9.02437C18.4334 12.6318 19.137 16.1275 20.5331 19.411C20.5387 19.4333 20.561 19.478 20.5666 19.4947H15.122L15.0997 19.5227C11.6821 24.3642 6.1147 27.3126 0.195447 27.3126H0V35.6889H0.195447C9.32003 35.6889 17.6907 31.0429 22.616 23.3534C27.5357 31.0429 35.912 35.6889 45.0366 35.6889H45.232V27.3126H45.0366H45.0421Z" fill="black"/>
<path d="M85.2246 3.85938H93.1039V14.7486C94.5279 12.8164 97.8784 11.0407 101.843 11.0407C107.991 11.0407 112.314 15.1059 112.314 21.2039V39.5982H104.49V23.2868C104.49 20.0871 102.658 17.9483 99.509 17.9483C95.6447 17.9483 93.1039 20.947 93.1039 26.9947V39.5982H85.2246V3.85938Z" fill="black"/>
<path d="M126.213 11.6776H134.092V14.7489C135.466 12.867 138.816 11.041 142.831 11.041C148.98 11.041 153.302 15.1063 153.302 21.154V39.5986H145.478V23.2369C145.478 20.0874 143.647 17.9543 140.497 17.9543C136.633 17.9543 134.092 20.953 134.092 27.0007V39.6042H126.213V11.6832V11.6776Z" fill="black"/>
<path d="M154.996 25.5186C154.996 17.0809 160.943 11.0332 169.225 11.0332C178.628 11.0332 184.268 18.1977 182.995 27.3446H162.719C163.328 31.5105 165.919 33.4928 169.526 33.4928C172.475 33.4928 174.357 32.2755 174.865 30.3434H182.945C181.878 35.9331 176.847 39.9984 169.532 39.9984C160.536 39.9984 154.996 33.9507 154.996 25.513V25.5186ZM174.82 21.7046C174.669 18.8064 172.48 16.9804 169.23 16.9804C165.98 16.9804 163.892 18.5551 163.032 21.7046H174.82Z" fill="black"/>
<path d="M64.8489 13.5755C64.8489 11.6434 66.5242 10.4763 69.2213 10.4763C72.22 10.4763 74.6101 12.1515 75.1182 14.7928H82.9417C82.1823 7.87961 76.894 3.61328 69.2213 3.61328C62.3584 3.61328 56.8188 7.77909 56.8188 13.9273C56.8188 27.039 75.1127 23.0742 75.1127 29.429C75.1127 31.8191 72.9795 33.1369 70.0813 33.1369C66.0942 33.1369 63.7265 30.9368 63.1569 27.307H55.3223C56.065 35.1082 61.4761 39.9999 70.0813 39.9999C77.6535 39.9999 83.193 35.6275 83.193 28.9209C83.193 15.1 64.8489 19.1653 64.8489 13.5755Z" fill="black"/>
<path d="M123.08 11.6758H115.201V39.5968H123.08V11.6758Z" fill="black"/>
<path d="M119.145 8.87888C121.596 8.87888 123.584 6.89127 123.584 4.43944C123.584 1.9876 121.596 0 119.145 0C116.693 0 114.705 1.9876 114.705 4.43944C114.705 6.89127 116.693 8.87888 119.145 8.87888Z" fill="black"/>
</svg>
