<?xml version="1.0" encoding="UTF-8"?> <svg xmlns="http://www.w3.org/2000/svg" id="Laag_1" data-name="Laag 1" viewBox="0 0 384.6 70.08"><title>Tekengebied 3248</title><path d="M27.69,57.13a28.28,28.28,0,0,1-9-1.46,21.91,21.91,0,0,1-7.51-4.18l3.47-5.84a29.87,29.87,0,0,0,6.51,3.58,17.47,17.47,0,0,0,6.29,1.22,8,8,0,0,0,4.38-1,3.37,3.37,0,0,0,1.6-3,3,3,0,0,0-1.87-2.85,40.54,40.54,0,0,0-6.13-2.08q-3.54-1-6.05-1.88a15.56,15.56,0,0,1-4-2.05,7.12,7.12,0,0,1-2.23-2.65,8.47,8.47,0,0,1-.69-3.58,11.37,11.37,0,0,1,1.08-5,10.78,10.78,0,0,1,3-3.79,14.17,14.17,0,0,1,4.56-2.4,18.72,18.72,0,0,1,5.67-.83,24.32,24.32,0,0,1,7.68,1.18,18.71,18.71,0,0,1,6.58,3.83l-3.76,5.63a22,22,0,0,0-5.39-3.06,14.73,14.73,0,0,0-5.18-1,7.51,7.51,0,0,0-4,1A3.4,3.4,0,0,0,21.15,30a3,3,0,0,0,.39,1.6,3.29,3.29,0,0,0,1.21,1.11,11.64,11.64,0,0,0,2.19.94c.91.3,2,.62,3.38.94q3.75,1,6.43,1.95a17.5,17.5,0,0,1,4.38,2.22,8,8,0,0,1,2.51,2.89,8.91,8.91,0,0,1,.8,3.93,10.15,10.15,0,0,1-4,8.45Q34.51,57.12,27.69,57.13Z" style="fill:#4f9fd7"></path><path d="M49.88,14.91V5.65H59.2v9.26Zm0,41.52V20H59.2V56.43Z" style="fill:#4f9fd7"></path><path d="M68.94,5.65h9.32V44.74a4.63,4.63,0,0,0,1,3.14A3.51,3.51,0,0,0,82,49a6.88,6.88,0,0,0,1.85-.28,12.72,12.72,0,0,0,1.91-.7L87,55.11a17.9,17.9,0,0,1-4.38,1.39,24.35,24.35,0,0,1-4.52.49,9.35,9.35,0,0,1-6.78-2.33A8.85,8.85,0,0,1,68.94,48Z" style="fill:#4f9fd7"></path><path d="M101.49,56.43,88.06,20h9.6l9.25,28.87L116.23,20H125L111.57,56.43Z" style="fill:#4f9fd7"></path><path d="M140.3,57.13a13.83,13.83,0,0,1-4.94-.87,11.74,11.74,0,0,1-4-2.44,11.41,11.41,0,0,1-2.61-3.65,11,11,0,0,1-.94-4.59A10.09,10.09,0,0,1,129,40.81a10.85,10.85,0,0,1,3.2-3.72,15.78,15.78,0,0,1,4.9-2.4,21.38,21.38,0,0,1,6.26-.87,27,27,0,0,1,4.77.42,19.4,19.4,0,0,1,4.13,1.18V33.34a7.32,7.32,0,0,0-2-5.57c-1.37-1.29-3.39-1.94-6.08-1.94a16.06,16.06,0,0,0-5.71,1,26.16,26.16,0,0,0-5.7,3.06L129.87,24A26.88,26.88,0,0,1,145,19.36q7.86,0,12.21,3.86t4.35,11.16V45.72a3.29,3.29,0,0,0,.52,2.09,2.26,2.26,0,0,0,1.7.69v7.93a21.12,21.12,0,0,1-4.1.49,6.19,6.19,0,0,1-4.07-1.19,5.11,5.11,0,0,1-1.78-3.13l-.2-2a16.3,16.3,0,0,1-5.92,4.87A17,17,0,0,1,140.3,57.13Zm2.64-6.82a12.06,12.06,0,0,0,4.49-.84,8,8,0,0,0,3.3-2.22,3.35,3.35,0,0,0,1.53-2.64V40.43a24,24,0,0,0-3.61-1,19.9,19.9,0,0,0-3.76-.38A10,10,0,0,0,139,40.68a4.91,4.91,0,0,0-2.3,4.13,5,5,0,0,0,1.81,3.93A6.54,6.54,0,0,0,142.94,50.31Z" style="fill:#4f9fd7"></path><path d="M184.68,57.13a25.17,25.17,0,0,1-8.28-1.4,19.84,19.84,0,0,1-7-4l2.16-3.2a23.58,23.58,0,0,0,6.23,3.76,18.36,18.36,0,0,0,6.78,1.25,12.27,12.27,0,0,0,7-1.77,5.76,5.76,0,0,0,2.61-5.05,4.42,4.42,0,0,0-.7-2.54,6,6,0,0,0-2-1.77A16.43,16.43,0,0,0,188.05,41c-1.37-.39-3-.8-4.76-1.21q-3.14-.77-5.43-1.53a16.61,16.61,0,0,1-3.79-1.74,6.29,6.29,0,0,1-2.23-2.4,7.92,7.92,0,0,1-.73-3.58,10.29,10.29,0,0,1,1.08-4.8,9.87,9.87,0,0,1,2.92-3.45,13.5,13.5,0,0,1,4.32-2,19.36,19.36,0,0,1,5.25-.69,20.42,20.42,0,0,1,7.58,1.35,15.09,15.09,0,0,1,5.49,3.58l-2.29,2.79a12.7,12.7,0,0,0-4.91-3.13,17.44,17.44,0,0,0-6-1.05,14.72,14.72,0,0,0-3.48.39,8.36,8.36,0,0,0-2.82,1.21,6.06,6.06,0,0,0-1.91,2.12,6.33,6.33,0,0,0-.7,3,5,5,0,0,0,.49,2.36,4.16,4.16,0,0,0,1.6,1.57A13.08,13.08,0,0,0,180.54,35q1.69.53,4.14,1.08c2.31.56,4.35,1.11,6.12,1.67a19.39,19.39,0,0,1,4.41,2,7.54,7.54,0,0,1,2.68,2.71,7.83,7.83,0,0,1,.91,3.89A9.44,9.44,0,0,1,195,54.2Q191.15,57.13,184.68,57.13Z" style="fill:#4f9fd7"></path><path d="M223.35,57.13a17.13,17.13,0,0,1-7.23-1.5,17.76,17.76,0,0,1-5.67-4.07,18.39,18.39,0,0,1-3.72-6,19.94,19.94,0,0,1,0-14.4,19.13,19.13,0,0,1,3.76-6,18.16,18.16,0,0,1,5.67-4.1,16.63,16.63,0,0,1,7.16-1.53,16.91,16.91,0,0,1,7.2,1.53,18.06,18.06,0,0,1,5.7,4.1,19.13,19.13,0,0,1,3.76,6,20.08,20.08,0,0,1,0,14.4,18.39,18.39,0,0,1-3.72,6,17.67,17.67,0,0,1-5.7,4.07A17.38,17.38,0,0,1,223.35,57.13ZM210.2,38.48a15,15,0,0,0,1.05,5.67,15.27,15.27,0,0,0,2.81,4.59,12.71,12.71,0,0,0,4.18,3.1A12,12,0,0,0,223.35,53a11.62,11.62,0,0,0,5.11-1.15,13.42,13.42,0,0,0,4.21-3.13,14.71,14.71,0,0,0,2.85-4.62,15.92,15.92,0,0,0,0-11.37A14.56,14.56,0,0,0,232.67,28a13.58,13.58,0,0,0-4.21-3.13,11.62,11.62,0,0,0-5.11-1.15,11.43,11.43,0,0,0-5.08,1.15,13.43,13.43,0,0,0-4.17,3.16,15.09,15.09,0,0,0-2.85,4.7A15.52,15.52,0,0,0,210.2,38.48Z" style="fill:#4f9fd7"></path><path d="M251.87,56.43V24h-5V20.19h5v-1q0-6.67,2.85-10.47A9.22,9.22,0,0,1,262.51,5a14.18,14.18,0,0,1,4.17.62,12.23,12.23,0,0,1,3.48,1.67l-1.46,3.41a7.09,7.09,0,0,0-2.4-1.18,10.16,10.16,0,0,0-2.89-.42,5.72,5.72,0,0,0-5.07,2.58q-1.74,2.56-1.74,7.44v1.11h10V24h-10V56.43Z" style="fill:#4f9fd7"></path><path d="M291.86,54.69c-.28.14-.68.33-1.22.56s-1.14.46-1.84.69a21,21,0,0,1-2.36.63,14,14,0,0,1-2.79.28,10.06,10.06,0,0,1-2.92-.42,6.75,6.75,0,0,1-2.43-1.29A6.2,6.2,0,0,1,276.63,53a7,7,0,0,1-.63-3.06V24h-5V20.19h5V8h4.73V20.19h8.35V24h-8.35V48.57a3.75,3.75,0,0,0,1.43,3,4.92,4.92,0,0,0,2.95.94,8.72,8.72,0,0,0,3.55-.67,17.21,17.21,0,0,0,1.95-.93Z" style="fill:#4f9fd7"></path><path d="M332.36,53.29s-12.28,1.77-13.18-7.14c-1-9.75,7.83-9.75,7.83-9.75s-1.83-16.38,13-17c13.88-.59,15.22,10.77,15.22,10.77s7.35-5.7,13.25-2.49c5.3,2.9,5.29,11,5.29,11" style="fill:none;stroke:#4f9fd7;stroke-miterlimit:10;stroke-width:7.65354347229004px"></path></svg> 