<svg xmlns="http://www.w3.org/2000/svg" xmlns:xlink="http://www.w3.org/1999/xlink" id="eAccoutnting-logo-byVISMA-positive-rgb" viewBox="15.68 15.68 266.32 67.8">
  <defs>
    <clipPath id="clippath">
      <rect x="5.37" y="9.44" width="69.46" height="69.46" fill="none" stroke-width="0"/>
    </clipPath>
    <linearGradient id="linear-gradient" x1="61.38" y1="876.35" x2="30.35" y2="849.11" gradientTransform="translate(0 906) scale(1 -1)" gradientUnits="userSpaceOnUse">
      <stop offset=".04" stop-color="#ffedeb"/>
      <stop offset=".48" stop-color="#fe9388"/>
      <stop offset=".98" stop-color="#eb0000"/>
    </linearGradient>
    <linearGradient id="linear-gradient-2" x1="62.99" y1="880.71" x2="35.94" y2="870.83" gradientTransform="translate(0 906) scale(1 -1)" gradientUnits="userSpaceOnUse">
      <stop offset=".08" stop-color="#fe796b"/>
      <stop offset=".88" stop-color="#ffb5ae"/>
    </linearGradient>
    <radialGradient id="radial-gradient" cx="1397.21" cy="989.06" fx="1397.21" fy="989.06" r=".26" gradientTransform="translate(83565.22 -193381.92) rotate(155.98) scale(110.94 -144.24)" gradientUnits="userSpaceOnUse">
      <stop offset=".03" stop-color="#8c57c1"/>
      <stop offset=".86" stop-color="#ffedeb" stop-opacity="0"/>
    </radialGradient>
    <linearGradient id="linear-gradient-3" x1="22.76" y1="872.39" x2="28.97" y2="844.19" gradientTransform="translate(0 906) scale(1 -1)" gradientUnits="userSpaceOnUse">
      <stop offset="0" stop-color="#c497e2" stop-opacity=".2"/>
      <stop offset="1" stop-color="#eb0000"/>
    </linearGradient>
    <linearGradient id="linear-gradient-4" x1="43.22" y1="870.27" x2="38.5" y2="846.28" gradientTransform="translate(0 906) scale(1 -1)" gradientUnits="userSpaceOnUse">
      <stop offset="0" stop-color="#fe796b"/>
      <stop offset=".29" stop-color="#f56262"/>
      <stop offset="1" stop-color="#eb0000"/>
    </linearGradient>
  </defs>
  <path d="M80.44,46.96c0-1.67.24-3.13.73-4.37.48-1.26,1.13-2.3,1.93-3.13.8-.82,1.72-1.44,2.76-1.86,1.04-.41,2.11-.62,3.2-.62,2.55,0,4.5.8,5.86,2.4,1.36,1.58,2.04,3.99,2.04,7.24v.58c0,.22-.01.42-.04.62h-12.95c.15,1.96.72,3.46,1.71,4.47.99,1.02,2.55,1.53,4.66,1.53,1.19,0,2.18-.1,2.98-.29.82-.22,1.44-.42,1.86-.62l.47,2.84c-.41.22-1.14.45-2.18.69-1.02.24-2.18.36-3.49.36-1.65,0-3.08-.24-4.29-.73-1.19-.51-2.17-1.2-2.95-2.07-.78-.87-1.36-1.9-1.75-3.09-.36-1.21-.55-2.53-.55-3.97ZM93.43,45.11c.02-1.53-.36-2.78-1.16-3.75-.78-.99-1.86-1.49-3.24-1.49-.78,0-1.47.16-2.07.47-.58.29-1.08.68-1.49,1.16-.41.48-.74,1.04-.98,1.67-.22.63-.36,1.27-.44,1.93h9.39ZM118.88,56.38c-.41-1.09-.8-2.16-1.16-3.2-.36-1.07-.74-2.15-1.13-3.24h-11.42l-2.29,6.44h-3.67c.97-2.67,1.88-5.13,2.73-7.38.85-2.28,1.67-4.44,2.47-6.47.82-2.04,1.64-3.98,2.44-5.82.8-1.87,1.64-3.71,2.51-5.53h3.24c.87,1.82,1.71,3.66,2.51,5.53.8,1.84,1.6,3.78,2.4,5.82.82,2.04,1.66,4.2,2.51,6.47.85,2.26,1.76,4.72,2.73,7.38h-3.86ZM115.57,47.04c-.78-2.11-1.55-4.15-2.33-6.11-.75-1.99-1.54-3.89-2.36-5.71-.85,1.82-1.66,3.72-2.44,5.71-.75,1.96-1.5,4-2.26,6.11h9.39ZM133.7,56.82c-1.53,0-2.87-.24-4.04-.73-1.14-.48-2.11-1.16-2.91-2.04-.77-.87-1.36-1.9-1.75-3.09-.39-1.21-.58-2.55-.58-4s.21-2.79.62-4c.44-1.21,1.04-2.26,1.82-3.13.78-.9,1.72-1.59,2.84-2.07,1.14-.51,2.4-.76,3.78-.76.85,0,1.7.07,2.55.22.85.15,1.66.38,2.44.69l-.76,2.87c-.51-.24-1.1-.44-1.78-.58-.65-.15-1.36-.22-2.11-.22-1.89,0-3.35.59-4.37,1.78-.99,1.19-1.49,2.92-1.49,5.2,0,1.02.11,1.95.33,2.8.24.85.61,1.58,1.09,2.18.51.61,1.15,1.08,1.93,1.42.78.32,1.72.47,2.84.47.9,0,1.71-.08,2.44-.25.73-.17,1.3-.35,1.71-.55l.47,2.84c-.19.12-.47.24-.84.36-.36.1-.78.18-1.24.25-.46.1-.96.17-1.49.22-.51.07-1.01.11-1.49.11ZM150.61,56.82c-1.53,0-2.87-.24-4.04-.73-1.14-.48-2.11-1.16-2.91-2.04-.78-.87-1.36-1.9-1.75-3.09-.39-1.21-.58-2.55-.58-4s.21-2.79.62-4c.44-1.21,1.04-2.26,1.82-3.13.78-.9,1.72-1.59,2.84-2.07,1.14-.51,2.4-.76,3.78-.76.85,0,1.7.07,2.55.22.85.15,1.66.38,2.44.69l-.76,2.87c-.51-.24-1.1-.44-1.78-.58-.65-.15-1.36-.22-2.11-.22-1.89,0-3.35.59-4.36,1.78-1,1.19-1.49,2.92-1.49,5.2,0,1.02.11,1.95.33,2.8.24.85.61,1.58,1.09,2.18.51.61,1.15,1.08,1.93,1.42.78.32,1.72.47,2.84.47.9,0,1.71-.08,2.44-.25.73-.17,1.3-.35,1.71-.55l.47,2.84c-.19.12-.47.24-.84.36-.36.1-.78.18-1.24.25-.46.1-.96.17-1.49.22-.51.07-1.01.11-1.49.11ZM175.53,46.93c0,1.5-.22,2.86-.65,4.07-.44,1.21-1.06,2.26-1.85,3.13-.78.87-1.71,1.55-2.8,2.04-1.09.46-2.28.69-3.56.69s-2.47-.23-3.56-.69c-1.09-.49-2.04-1.16-2.84-2.04-.78-.87-1.38-1.92-1.82-3.13-.44-1.21-.65-2.57-.65-4.07s.22-2.83.65-4.04c.44-1.24,1.04-2.29,1.82-3.16.8-.87,1.75-1.54,2.84-2,1.09-.48,2.28-.73,3.56-.73s2.47.24,3.56.73c1.09.46,2.03,1.13,2.8,2,.8.87,1.42,1.93,1.85,3.16.44,1.21.65,2.56.65,4.04ZM172,46.93c0-2.13-.49-3.82-1.46-5.06-.95-1.26-2.24-1.89-3.89-1.89s-2.96.63-3.93,1.89c-.95,1.24-1.42,2.92-1.42,5.06s.47,3.83,1.42,5.09c.97,1.24,2.28,1.86,3.93,1.86s2.95-.62,3.89-1.86c.97-1.26,1.46-2.96,1.46-5.09ZM195.35,55.84c-.78.19-1.81.4-3.09.62-1.26.22-2.73.33-4.4.33-1.46,0-2.68-.21-3.67-.62-.99-.44-1.79-1.04-2.4-1.82-.61-.78-1.04-1.69-1.31-2.73-.27-1.07-.4-2.24-.4-3.53v-10.62h3.38v9.89c0,2.3.36,3.95,1.09,4.95.73.99,1.95,1.49,3.67,1.49.36,0,.74-.01,1.13-.04.39-.02.75-.05,1.09-.07.34-.05.64-.08.91-.11.29-.05.5-.1.62-.15v-15.97h3.38v18.37ZM201.18,38.01c.78-.19,1.81-.4,3.09-.62,1.29-.22,2.77-.33,4.44-.33,1.5,0,2.75.22,3.75.65,1,.41,1.78,1.01,2.36,1.78.61.75,1.03,1.66,1.27,2.73.24,1.07.36,2.24.36,3.53v10.62h-3.38v-9.89c0-1.16-.09-2.16-.26-2.98-.14-.82-.4-1.49-.76-2-.36-.51-.85-.87-1.46-1.09-.61-.24-1.36-.36-2.26-.36-.36,0-.74.01-1.13.04-.39.02-.76.06-1.13.11-.34.02-.65.06-.95.11-.27.05-.46.08-.58.11v15.97h-3.38v-18.37ZM225.23,37.47h7.17v2.84h-7.17v8.73c0,.95.07,1.73.22,2.36.15.61.36,1.09.65,1.45.29.34.65.58,1.09.73.44.15.95.22,1.53.22,1.02,0,1.83-.11,2.44-.33.63-.24,1.07-.41,1.31-.51l.65,2.8c-.34.17-.93.38-1.78.62-.85.27-1.82.4-2.91.4-1.28,0-2.35-.16-3.2-.47-.82-.34-1.49-.84-2-1.49-.51-.65-.87-1.45-1.09-2.4-.19-.97-.29-2.09-.29-3.35v-16.88l3.38-.58v5.86ZM240.08,56.38h-3.38v-18.92h3.38v18.92ZM238.37,34.05c-.61,0-1.13-.19-1.57-.58-.41-.41-.62-.96-.62-1.64s.21-1.21.62-1.6c.44-.41.96-.62,1.57-.62s1.12.21,1.53.62c.44.39.65.92.65,1.6s-.22,1.22-.65,1.64c-.41.39-.92.58-1.53.58ZM245.9,38.01c.78-.19,1.81-.4,3.09-.62,1.28-.22,2.77-.33,4.44-.33,1.5,0,2.75.22,3.75.65.99.41,1.78,1.01,2.36,1.78.61.75,1.03,1.66,1.27,2.73.24,1.07.36,2.24.36,3.53v10.62h-3.38v-9.89c0-1.16-.08-2.16-.25-2.98-.15-.82-.4-1.49-.76-2-.36-.51-.85-.87-1.45-1.09-.61-.24-1.36-.36-2.26-.36-.36,0-.74.01-1.13.04-.39.02-.76.06-1.13.11-.34.02-.65.06-.95.11-.27.05-.46.08-.58.11v15.97h-3.38v-18.37ZM278.65,54.49c-.29.19-.86.45-1.71.76-.82.29-1.79.44-2.91.44s-2.22-.18-3.24-.55c-.99-.36-1.87-.92-2.62-1.67-.75-.78-1.35-1.73-1.78-2.87-.44-1.14-.65-2.5-.65-4.07,0-1.38.21-2.64.62-3.78.41-1.16,1.01-2.16,1.78-2.98.8-.85,1.77-1.5,2.91-1.96,1.14-.48,2.43-.73,3.86-.73,1.58,0,2.95.12,4.11.36,1.19.22,2.18.42,2.98.62v16.88c0,2.91-.75,5.02-2.26,6.33-1.5,1.31-3.78,1.96-6.84,1.96-1.19,0-2.32-.1-3.38-.29-1.04-.19-1.95-.42-2.73-.69l.62-2.95c.68.27,1.5.5,2.47.69.99.22,2.03.33,3.09.33,2.01,0,3.46-.4,4.33-1.2.9-.8,1.35-2.07,1.35-3.82v-.8ZM278.61,40.45c-.34-.1-.8-.18-1.38-.25-.56-.1-1.32-.15-2.29-.15-1.82,0-3.23.59-4.22,1.78-.97,1.19-1.45,2.76-1.45,4.73,0,1.09.13,2.02.4,2.8.29.78.67,1.42,1.13,1.93.49.51,1.03.89,1.64,1.13.63.24,1.27.36,1.93.36.9,0,1.72-.12,2.47-.36.75-.27,1.35-.57,1.78-.91v-11.06Z" fill="#000" stroke-width="0"/>
  <path d="M218.25,76.1c0,.69-.1,1.31-.3,1.87-.2.55-.49,1.03-.87,1.42-.38.4-.84.7-1.37.91-.54.21-1.15.31-1.83.31s-1.29-.05-1.88-.15c-.6-.1-1.09-.21-1.49-.33v-12.18l1.99-.33v4.46c.23-.12.51-.23.85-.33.33-.1.71-.15,1.11-.15.6,0,1.14.11,1.62.32s.88.52,1.19.91c.32.4.56.87.73,1.42.17.55.26,1.17.26,1.84ZM216.21,76.07c0-.84-.17-1.51-.5-2.01-.33-.49-.86-.74-1.59-.74-.33,0-.64.05-.93.15-.29.1-.52.21-.7.33v4.96c.14.03.33.06.55.09.22.03.5.04.81.04.74,0,1.31-.25,1.73-.75.42-.5.63-1.19.63-2.07ZM227.16,71.79c-.89,3.27-1.92,6.23-3.09,8.89-.22.49-.45.92-.68,1.27-.23.35-.49.64-.77.87-.29.23-.6.4-.96.5-.35.1-.76.16-1.22.16-.31,0-.61-.03-.91-.1-.3-.07-.53-.14-.68-.21l.36-1.6c.4.15.79.23,1.17.23.52,0,.92-.12,1.22-.37.29-.25.55-.63.77-1.14-.63-1.21-1.23-2.52-1.81-3.95-.58-1.43-1.09-2.94-1.55-4.54h2.12c.11.46.24.96.4,1.5.16.54.33,1.08.52,1.64.19.55.39,1.11.59,1.65.21.55.42,1.06.63,1.53.35-.98.68-2.02.98-3.12.31-1.1.58-2.17.84-3.2h2.06ZM235.87,80.4c-.82-1.78-1.62-3.64-2.38-5.58s-1.47-3.89-2.13-5.83h2.29c.26.77.53,1.55.81,2.35.27.8.55,1.59.83,2.36.27.77.55,1.52.83,2.25.27.72.54,1.39.81,1.99.25-.6.52-1.26.79-1.98.27-.72.55-1.47.83-2.25.28-.78.56-1.57.83-2.37.27-.8.54-1.59.79-2.35h2.22c-.67,1.94-1.39,3.89-2.15,5.83-.76,1.94-1.55,3.8-2.38,5.58h-1.99ZM243.85,68.99h2.07v11.41h-2.07v-11.41ZM251.42,78.85c.75,0,1.29-.13,1.63-.38.34-.25.51-.61.51-1.07,0-.27-.06-.51-.17-.71-.12-.2-.28-.38-.49-.54-.21-.16-.47-.31-.78-.44-.31-.14-.66-.27-1.05-.4-.4-.14-.78-.3-1.14-.47-.37-.17-.69-.38-.97-.63-.28-.25-.5-.55-.67-.91-.17-.35-.26-.77-.26-1.27,0-1.03.36-1.84,1.07-2.43.71-.59,1.68-.88,2.91-.88.71,0,1.35.08,1.9.24.55.16.99.33,1.31.52l-.64,1.68c-.37-.21-.78-.37-1.23-.48-.44-.11-.9-.16-1.37-.16-.56,0-1,.12-1.31.35s-.47.55-.47.97c0,.25.05.47.16.65.1.18.25.34.44.49.19.14.42.27.67.4.26.12.54.24.85.35.54.2,1.02.4,1.44.6.42.2.78.44,1.07.72.29.28.51.61.67.99.15.38.23.84.23,1.37,0,1.03-.36,1.83-1.09,2.4-.73.57-1.8.85-3.2.85-.47,0-.9-.03-1.29-.09-.39-.06-.74-.13-1.04-.22-.3-.09-.56-.18-.78-.27-.22-.09-.4-.18-.53-.26l.61-1.7c.3.16.7.33,1.2.49.5.16,1.11.25,1.83.25ZM260.04,68.99c.24.42.51.93.81,1.53.3.6.6,1.24.91,1.9.31.66.61,1.34.91,2.02.3.69.58,1.32.83,1.9.25-.58.53-1.22.82-1.9.3-.69.6-1.36.91-2.02.31-.66.61-1.3.91-1.9.3-.6.57-1.11.81-1.53h1.87c.1.83.2,1.72.29,2.66.09.94.17,1.9.24,2.88.07.98.14,1.97.2,2.96.06.99.11,1.96.16,2.91h-2.04c-.04-1.33-.1-2.69-.16-4.1-.06-1.4-.15-2.77-.28-4.08-.12.25-.26.55-.43.91-.16.35-.34.73-.53,1.14-.19.41-.38.84-.57,1.28-.19.44-.38.86-.56,1.28-.18.41-.35.8-.5,1.15-.15.36-.29.66-.4.91h-1.55c-.11-.25-.24-.56-.4-.92-.15-.36-.32-.75-.5-1.16-.18-.41-.37-.84-.56-1.28-.19-.44-.38-.86-.57-1.27-.19-.41-.36-.79-.53-1.14-.16-.36-.31-.66-.43-.9-.12,1.32-.22,2.68-.28,4.08-.06,1.4-.11,2.77-.16,4.1h-2.04c.04-.94.1-1.92.16-2.93.06-1.01.13-2.01.2-3,.07-.99.15-1.96.24-2.89.09-.93.18-1.79.29-2.58h1.92ZM279.69,80.4c-.15-.45-.31-.89-.48-1.33-.17-.44-.32-.89-.48-1.35h-4.82c-.15.46-.31.91-.47,1.36s-.32.89-.47,1.33h-2.16c.43-1.22.83-2.34,1.22-3.37.38-1.03.76-2.01,1.13-2.93s.73-1.8,1.09-2.63c.36-.83.73-1.66,1.12-2.47h1.98c.38.81.76,1.64,1.12,2.47.36.83.73,1.71,1.09,2.63s.75,1.9,1.14,2.93c.39,1.03.8,2.16,1.23,3.37h-2.24ZM276.32,71.2c-.25.58-.54,1.29-.86,2.12-.32.83-.66,1.74-1.01,2.72h3.75c-.35-.98-.69-1.89-1.02-2.73-.33-.84-.61-1.55-.86-2.11Z" fill="#000" stroke-width="0"/>
  <g clip-path="url(#clippath)">
    <g>
      <path d="M60.43,15.69c1.13,14.52-22.52,6.53-32.18,21.72-5.85,9.23-5.8,20.52,1.51,35.21.03.06.11.02.09-.03-2.86-7.28,2.73-10.21,2.89-10.29,6.51-3.79,19.27-2.36,26.14-8.11,4.36-3.66,5.62-9.33,5.64-14.98-.03-4.72-1.34-15.71-4.09-23.51Z" fill="url(#linear-gradient)" stroke-width="0"/>
      <path d="M59.67,36.32c-6.56,5.31-14.59,1.79-21.97-1.4-1.99-.86-3.81-1.5-5.54-1.97,10.97-9.15,29.27-4.43,28.27-17.27,1.02,2.88,1.84,6.17,2.47,9.44.75,3.91-.13,8.32-3.23,11.2Z" fill="url(#linear-gradient-2)" stroke-width="0"/>
      <path d="M59.67,36.32c-6.56,5.31-14.59,1.79-21.97-1.4-1.99-.86-3.81-1.5-5.54-1.97,10.97-9.15,29.27-4.43,28.27-17.27,1.02,2.88,1.84,6.17,2.47,9.44.75,3.91-.13,8.32-3.23,11.2Z" fill="url(#radial-gradient)" fill-opacity=".4" stroke-width="0"/>
      <path d="M28.25,37.41c-5.85,9.23-5.8,20.53,1.52,35.23-.03-.02-.07-.09-.16-.24-.96-1.4-5.83-8.68-10.1-16.61-7.93-14.67-3.46-27.17,12.65-22.84-1.44,1.22-2.78,2.67-3.91,4.46Z" fill="url(#linear-gradient-3)" stroke-width="0"/>
      <path d="M59.67,36.32c-.39.39-1.18.99-1.99,1.43-4.46,2.46-14.38,4.59-21.52,11.64-10.41,10.28-6.94,21.4-6.36,23.04.05.14.07.22.01.22-.04,0-.07-.08-.11-.18-7.25-14.63-7.33-25.87-1.49-35.07,1.13-1.79,2.49-3.24,3.96-4.46,1.71.47,3.54,1.09,5.54,1.94,7.4,3.21,15.43,6.74,21.97,1.43Z" fill="url(#linear-gradient-4)" stroke-width="0"/>
    </g>
  </g>
</svg>